<?xml version="1.0" encoding="UTF-8" standalone="no"?>
<!DOCTYPE svg PUBLIC "-//W3C//DTD SVG 1.1//EN" "http://www.w3.org/Graphics/SVG/1.1/DTD/svg11.dtd">
<svg width="100%" height="100%" viewBox="0 0 13 13" version="1.1" xmlns="http://www.w3.org/2000/svg" xmlns:xlink="http://www.w3.org/1999/xlink" xml:space="preserve" xmlns:serif="http://www.serif.com/" style="fill-rule:evenodd;clip-rule:evenodd;stroke-linejoin:round;stroke-miterlimit:2;">
    <g id="Regular-S" transform="matrix(0.152173,0,0,0.152173,-0.540248,11.8647)">
        <path d="M46.191,-74.658C38.33,-74.658 31.006,-72.315 24.805,-68.213L29.102,-63.965C33.106,-66.455 37.695,-68.018 42.529,-68.604C39.502,-65.381 36.865,-62.012 34.619,-58.447L38.33,-54.688C41.406,-59.863 45.361,-64.551 49.951,-68.555C50.195,-68.555 50.488,-68.506 50.732,-68.457C47.266,-62.598 44.824,-56.25 43.408,-49.658L47.803,-45.215C48.877,-52.148 51.123,-58.691 54.541,-64.648L54.688,-64.648C52.734,-56.543 52.832,-48.779 55.029,-40.381L52.783,-40.283L65.283,-27.734C64.209,-30.371 63.086,-33.35 61.816,-36.475C67.773,-38.086 73.389,-40.869 78.369,-44.775C79.297,-41.748 79.785,-38.525 79.785,-35.254C79.785,-31.885 79.248,-28.565 78.223,-25.537L70.898,-22.119L79.199,-13.867C83.301,-20.02 85.693,-27.393 85.693,-35.254C85.693,-56.787 67.725,-74.658 46.191,-74.658ZM76.318,-49.805C71.582,-45.801 66.065,-42.969 60.156,-41.357C57.959,-49.365 57.861,-57.813 60.205,-65.625C67.236,-62.353 72.998,-56.69 76.318,-49.805ZM46.24,4.15C54.102,4.15 61.475,1.807 67.676,-2.295L63.379,-6.592C61.377,-5.322 59.228,-4.297 56.982,-3.516C54.785,-6.836 52.978,-10.303 51.465,-13.916C52.93,-13.965 54.346,-13.965 55.811,-14.111L49.756,-20.215C49.512,-20.215 49.268,-20.264 49.072,-20.313C48.926,-20.606 48.877,-20.85 48.779,-21.143L42.627,-27.295C42.92,-24.658 43.408,-22.119 44.141,-19.482C39.307,-20.068 34.522,-21.191 29.932,-22.949C29.932,-29.248 30.518,-33.789 31.592,-38.33L27.393,-42.529C25.732,-37.012 24.805,-31.201 24.756,-25.195C20.508,-27.344 16.504,-29.932 12.842,-33.057C12.793,-33.789 12.744,-34.522 12.744,-35.254C12.744,-41.455 14.502,-47.315 17.529,-52.393L13.281,-56.641C9.277,-50.44 6.836,-43.115 6.836,-35.254C6.836,-13.721 24.756,4.15 46.24,4.15ZM26.807,-8.057C20.947,-12.305 16.455,-18.359 14.258,-25.342C17.627,-22.998 21.191,-20.996 24.902,-19.385C25.195,-15.527 25.83,-11.865 26.807,-8.057ZM51.709,-2.148C49.902,-1.855 48.145,-1.709 46.24,-1.709C41.748,-1.709 37.451,-2.686 33.496,-4.346C31.982,-8.496 30.859,-12.842 30.322,-17.285C35.4,-15.576 40.576,-14.551 45.801,-14.111C47.363,-9.961 49.316,-5.957 51.709,-2.148ZM79.004,2.295C80.322,3.613 82.471,3.564 83.74,2.246C85.01,0.928 85.059,-1.172 83.74,-2.49L13.525,-72.754C12.207,-74.072 10.059,-74.072 8.74,-72.754C7.471,-71.484 7.471,-69.287 8.74,-68.018L79.004,2.295Z" style="fill:rgb(109,112,125);fill-rule:nonzero;"/>
    </g>
</svg>
