<?xml version="1.0" encoding="UTF-8" standalone="no"?>
<!DOCTYPE svg PUBLIC "-//W3C//DTD SVG 1.1//EN" "http://www.w3.org/Graphics/SVG/1.1/DTD/svg11.dtd">
<svg width="100%" height="100%" viewBox="0 0 13 13" version="1.1" xmlns="http://www.w3.org/2000/svg" xmlns:xlink="http://www.w3.org/1999/xlink" xml:space="preserve" xmlns:serif="http://www.serif.com/" style="fill-rule:evenodd;clip-rule:evenodd;stroke-linejoin:round;stroke-miterlimit:2;">
    <g id="Regular-S" transform="matrix(0.152132,0,0,0.152132,-0.538338,11.8632)">
        <path d="M13.525,-51.709C22.607,-41.26 35.791,-35.205 49.756,-35.254C61.084,-35.254 71.924,-39.209 80.518,-46.533L78.076,-51.318C70.264,-44.287 60.303,-40.43 49.756,-40.43C36.426,-40.43 24.023,-46.533 15.967,-57.08L13.525,-51.709ZM9.082,-29.395C29.004,-12.256 57.715,-9.082 80.762,-21.387L80.518,-27.246C58.301,-13.965 29.639,-17.188 10.449,-35.107L9.082,-29.395ZM28.369,-3.027L34.522,-1.709C31.543,-8.691 30.029,-16.064 29.981,-23.633C29.736,-41.846 37.891,-58.984 52.148,-70.41L46.826,-72.656C32.617,-60.303 24.561,-42.432 24.805,-23.633C24.854,-16.65 26.025,-9.717 28.369,-3.027ZM53.565,0.586L58.35,-1.611C51.074,-11.719 47.119,-23.731 47.119,-36.182C47.119,-47.852 50.488,-59.082 56.934,-68.652L51.856,-70.41C45.361,-60.156 41.943,-48.291 41.943,-36.182C41.943,-22.949 45.947,-10.205 53.565,0.586ZM75.977,-13.525L79.492,-17.432C66.504,-24.902 58.545,-38.574 58.496,-53.565C58.496,-58.789 59.424,-63.965 61.279,-68.799L56.299,-70.166C54.297,-64.893 53.32,-59.326 53.32,-53.565C53.369,-37.158 61.914,-22.022 75.977,-13.525ZM29.785,-35.791C33.203,-35.791 36.035,-38.574 36.035,-42.041C36.035,-45.459 33.203,-48.291 29.785,-48.291C26.318,-48.291 23.535,-45.459 23.535,-42.041C23.535,-38.574 26.318,-35.791 29.785,-35.791ZM59.131,-32.715C62.549,-32.715 65.332,-35.498 65.332,-38.965C65.332,-42.383 62.549,-45.166 59.131,-45.166C55.664,-45.166 52.881,-42.383 52.881,-38.965C52.881,-35.498 55.664,-32.715 59.131,-32.715ZM47.51,-10.547C50.928,-10.547 53.711,-13.33 53.711,-16.797C53.711,-20.215 50.928,-22.998 47.51,-22.998C44.043,-22.998 41.211,-20.215 41.211,-16.797C41.211,-13.33 44.043,-10.547 47.51,-10.547ZM46.24,4.15C67.773,4.15 85.693,-13.721 85.693,-35.254C85.693,-56.787 67.725,-74.658 46.191,-74.658C24.707,-74.658 6.836,-56.787 6.836,-35.254C6.836,-13.721 24.756,4.15 46.24,4.15ZM46.24,-1.709C27.979,-1.709 12.744,-16.992 12.744,-35.254C12.744,-53.516 27.93,-68.799 46.191,-68.799C64.502,-68.799 79.785,-53.516 79.785,-35.254C79.785,-16.992 64.551,-1.709 46.24,-1.709Z" style="fill:rgb(109,112,125);fill-rule:nonzero;"/>
    </g>
</svg>
